<svg width="594" height="335" viewBox="0 0 594 335" fill="none" xmlns="http://www.w3.org/2000/svg">
<rect width="594" height="334.125" transform="translate(0 0.251465)" fill="#1F0322"/>
<g opacity="0.1">
<path d="M167.986 151.705L174.466 158.185L167.986 164.665H125.866L119.386 158.185L125.866 151.705H167.986ZM177.706 159.805L180.946 163.045V208.405C179.866 212.725 177.166 215.425 172.846 216.505L167.986 203.545V169.525L177.706 159.805ZM169.606 216.505H121.006C116.686 215.425 113.986 212.725 112.906 208.405L125.866 203.545H164.746L169.606 216.505ZM112.906 205.165V163.045L116.146 159.805L125.866 169.525V200.305L112.906 205.165ZM164.746 112.825H126.028L113.068 107.965C114.148 103.645 116.848 100.945 121.168 99.8647H169.606L164.746 112.825ZM125.866 116.065V146.845L116.146 156.565L112.906 153.325V111.205L125.866 116.065ZM167.986 146.845V112.825L172.846 99.8647C177.166 100.945 179.866 103.645 180.946 107.965V153.325L177.706 156.565L167.986 146.845Z" fill="#FDF0D5"/>
<path d="M248.907 151.705L255.387 158.185L248.907 164.665H206.787L200.307 158.185L206.787 151.705H248.907ZM258.627 159.805L261.867 163.045V208.405C260.787 212.725 258.087 215.425 253.767 216.505L248.907 203.545V169.525L258.627 159.805ZM250.527 216.505H201.927C197.607 215.425 194.907 212.725 193.827 208.405L206.787 203.545H245.667L250.527 216.505ZM193.827 205.165V163.045L197.067 159.805L206.787 169.525V200.305L193.827 205.165ZM245.667 112.825H206.949L193.989 107.965C195.069 103.645 197.769 100.945 202.089 99.8647H250.527L245.667 112.825ZM206.787 116.065V146.845L197.067 156.565L193.827 153.325V111.205L206.787 116.065ZM248.907 146.845V112.825L253.767 99.8647C258.087 100.945 260.787 103.645 261.867 107.965V153.325L258.627 156.565L248.907 146.845Z" fill="#FDF0D5"/>
<path d="M329.828 151.705L336.308 158.185L329.828 164.665H287.708L281.228 158.185L287.708 151.705H329.828ZM339.548 159.805L342.788 163.045V208.405C341.708 212.725 339.008 215.425 334.688 216.505L329.828 203.545V169.525L339.548 159.805ZM331.448 216.505H282.848C278.528 215.425 275.828 212.725 274.748 208.405L287.708 203.545H326.588L331.448 216.505ZM274.748 205.165V163.045L277.988 159.805L287.708 169.525V200.305L274.748 205.165ZM326.588 112.825H287.87L274.91 107.965C275.99 103.645 278.69 100.945 283.01 99.8647H331.448L326.588 112.825ZM287.708 116.065V146.845L277.988 156.565L274.748 153.325V111.205L287.708 116.065ZM329.828 146.845V112.825L334.688 99.8647C339.008 100.945 341.708 103.645 342.788 107.965V153.325L339.548 156.565L329.828 146.845Z" fill="#FDF0D5"/>
<path d="M410.749 151.705L417.229 158.185L410.749 164.665H368.629L362.149 158.185L368.629 151.705H410.749ZM420.469 159.805L423.709 163.045V208.405C422.629 212.725 419.929 215.425 415.609 216.505L410.749 203.545V169.525L420.469 159.805ZM412.369 216.505H363.769C359.449 215.425 356.749 212.725 355.669 208.405L368.629 203.545H407.509L412.369 216.505ZM355.669 205.165V163.045L358.909 159.805L368.629 169.525V200.305L355.669 205.165ZM407.509 112.825H368.791L355.831 107.965C356.911 103.645 359.611 100.945 363.931 99.8647H412.369L407.509 112.825ZM368.629 116.065V146.845L358.909 156.565L355.669 153.325V111.205L368.629 116.065ZM410.749 146.845V112.825L415.609 99.8647C419.929 100.945 422.629 103.645 423.709 107.965V153.325L420.469 156.565L410.749 146.845Z" fill="#FDF0D5"/>
<path d="M491.67 151.705L498.15 158.185L491.67 164.665H449.55L443.07 158.185L449.55 151.705H491.67ZM501.39 159.805L504.63 163.045V208.405C503.55 212.725 500.85 215.425 496.53 216.505L491.67 203.545V169.525L501.39 159.805ZM493.29 216.505H444.69C440.37 215.425 437.67 212.725 436.59 208.405L449.55 203.545H488.43L493.29 216.505ZM436.59 205.165V163.045L439.83 159.805L449.55 169.525V200.305L436.59 205.165ZM488.43 112.825H449.712L436.752 107.965C437.832 103.645 440.532 100.945 444.852 99.8647H493.29L488.43 112.825ZM449.55 116.065V146.845L439.83 156.565L436.59 153.325V111.205L449.55 116.065ZM491.67 146.845V112.825L496.53 99.8647C500.85 100.945 503.55 103.645 504.63 107.965V153.325L501.39 156.565L491.67 146.845Z" fill="#FDF0D5"/>
</g>
<path d="M174.466 216.505H129.106L135.586 203.545H169.606L174.466 216.505ZM158.266 112.825H126.028L113.068 107.965C114.148 103.645 116.848 100.945 121.168 99.8647H164.746L158.266 112.825ZM146.926 146.845L167.986 99.8647C174.466 99.8647 178.786 102.025 180.946 106.345L156.646 156.565H146.926V146.845ZM148.546 169.525L125.866 216.505C119.386 216.505 115.066 214.345 112.906 210.025L138.826 159.805H148.546V169.525Z" fill="#FDF0D5"/>
<path d="M258.627 159.805L261.867 163.045V208.405C260.787 212.725 258.087 215.425 253.767 216.505L248.907 203.545V169.525L258.627 159.805ZM250.527 216.505H201.927C197.607 215.425 194.907 212.725 193.827 208.405L206.787 203.545H245.667L250.527 216.505ZM193.827 205.165V163.045L197.067 159.805L206.787 169.525V200.305L193.827 205.165ZM245.667 112.825H206.949L193.989 107.965C195.069 103.645 197.769 100.945 202.089 99.8647H250.527L245.667 112.825ZM206.787 116.065V146.845L197.067 156.565L193.827 153.325V111.205L206.787 116.065ZM248.907 146.845V112.825L253.767 99.8647C258.087 100.945 260.787 103.645 261.867 107.965V153.325L258.627 156.565L248.907 146.845Z" fill="#FDF0D5"/>
<path d="M339.548 159.805L342.788 163.045V208.405C341.708 212.725 339.008 215.425 334.688 216.505L329.828 203.545V169.525L339.548 159.805ZM331.448 216.505H282.848C278.528 215.425 275.828 212.725 274.748 208.405L287.708 203.545H326.588L331.448 216.505ZM274.748 205.165V163.045L277.988 159.805L287.708 169.525V200.305L274.748 205.165ZM326.588 112.825H287.87L274.91 107.965C275.99 103.645 278.69 100.945 283.01 99.8647H331.448L326.588 112.825ZM287.708 116.065V146.845L277.988 156.565L274.748 153.325V111.205L287.708 116.065ZM329.828 146.845V112.825L334.688 99.8647C339.008 100.945 341.708 103.645 342.788 107.965V153.325L339.548 156.565L329.828 146.845Z" fill="#FDF0D5"/>
<path d="M368.629 169.525V203.545L363.769 216.505C359.449 215.425 356.749 212.725 355.669 208.405V163.045L358.909 159.805L368.629 169.525ZM407.509 148.465H396.169L371.869 124.165V114.445H381.589L407.509 140.365V148.465ZM420.469 159.805L423.709 163.045V208.405C422.629 212.725 419.929 215.425 415.609 216.505L410.749 203.545V169.525L420.469 159.805ZM410.749 148.465V114.445L415.609 101.485C419.929 102.565 422.629 105.265 423.709 109.585V154.945L420.469 158.185L410.749 148.465ZM358.909 158.185L355.669 154.945V109.585C356.749 105.265 359.449 102.565 363.769 101.485L368.629 114.445V148.465L358.909 158.185Z" fill="#FDF0D5"/>
<path d="M491.67 151.705L498.15 158.185L491.67 164.665H449.55L443.07 158.185L449.55 151.705H491.67ZM498.15 216.505H444.69C440.37 215.425 437.67 212.725 436.59 208.405L449.55 203.545H493.29L498.15 216.505ZM436.59 205.165V163.045L439.83 159.805L449.55 169.525V200.305L436.59 205.165ZM493.29 112.825H449.712L436.752 107.965C437.832 103.645 440.532 100.945 444.852 99.8647H498.15L493.29 112.825ZM449.55 116.065V146.845L439.83 156.565L436.59 153.325V111.205L449.55 116.065Z" fill="#FDF0D5"/>
</svg>
