<svg width="594" height="595" viewBox="0 0 594 595" fill="none" xmlns="http://www.w3.org/2000/svg">
<rect y="0.748535" width="594" height="594" rx="121" fill="#1F0322"/>
<path opacity="0.1" d="M354.545 280.17L372.272 297.897L354.545 315.625H239.318L221.591 297.897L239.318 280.17H354.545ZM381.136 302.329L390 311.193V435.284C387.045 447.102 379.659 454.488 367.841 457.443L354.545 421.988V328.92L381.136 302.329ZM358.977 457.443H226.022C214.204 454.488 206.818 447.102 203.863 435.284L239.318 421.988H345.681L358.977 457.443ZM203.863 426.42V311.193L212.727 302.329L239.318 328.92V413.125L203.863 426.42ZM345.681 173.807H239.761L204.306 160.511C207.261 148.693 214.647 141.307 226.466 138.352H358.977L345.681 173.807ZM239.318 182.67V266.875L212.727 293.466L203.863 284.602V169.375L239.318 182.67ZM354.545 266.875V173.807L367.841 138.352C379.659 141.307 387.045 148.693 390 160.511V284.602L381.136 293.466L354.545 266.875Z" fill="#FDF0D5"/>
<path d="M372.272 457.443H248.181L265.909 421.988H358.977L372.272 457.443ZM327.954 173.807H239.761L204.306 160.511C207.261 148.693 214.647 141.307 226.466 138.352H345.681L327.954 173.807ZM296.931 266.875L354.545 138.352C372.272 138.352 384.091 144.261 390 156.079L323.522 293.466H296.931V266.875ZM301.363 328.92L239.318 457.443C221.591 457.443 209.772 451.534 203.863 439.716L274.772 302.329H301.363V328.92Z" fill="#FDF0D5"/>
</svg>
